

<svg id="verified" xmlns="http://www.w3.org/2000/svg" xmlns:xlink="http://www.w3.org/1999/xlink" width="20.133" height="20.133" viewBox="0 0 20.133 20.133">
  <defs>
    <linearGradient id="linear-gradient" x1="1.415" y1="1.764" x2="-0.319" y2="-0.722" gradientUnits="objectBoundingBox">
      <stop offset="0" stop-color="#fdb525"/>
      <stop offset="1" stop-color="#fdb525"/>
    </linearGradient>
  </defs>
  <g id="Gruppe_2852" data-name="Gruppe 2852">
    <g id="Gruppe_2851" data-name="Gruppe 2851">
      <path id="Pfad_6571" data-name="Pfad 6571" d="M17.773,0H2.359A2.362,2.362,0,0,0,0,2.359V17.773a2.362,2.362,0,0,0,2.359,2.359H17.773a2.362,2.362,0,0,0,2.359-2.359V2.359A2.362,2.362,0,0,0,17.773,0Zm.786,17.773a.787.787,0,0,1-.786.786H2.359a.787.787,0,0,1-.786-.786V2.359a.787.787,0,0,1,.786-.786H17.773a.787.787,0,0,1,.786.786Z" fill="url(#linear-gradient)"/>
    </g>
  </g>
</svg>
