<svg xmlns="http://www.w3.org/2000/svg" width="420.984" height="168.75" viewBox="0 0 420.984 168.75">
  <g id="Group_174" data-name="Group 174" transform="matrix(0.891, 0.454, -0.454, 0.891, -685.788, -1386.109)">
    <g id="layer1" transform="translate(1325.549 880.266) rotate(30)" opacity="0.699">
      <path id="path3472" d="M40.7,0c-7.745.043-14.42,7.7-14.42,19.689a30.085,30.085,0,0,0,2.035,11.453c2.575,6.687,7.941,12.084,13.4,13.47,5.531,1.405,11.692-1.686,14.711-7.38,2.081-3.926,2.608-6.38,2.6-12.124,0-3.985-.146-5.682-.629-7.482a27.362,27.362,0,0,0-7-12.656C47.962,1.535,44.22-.02,40.7,0ZM85.618.039A12.278,12.278,0,0,0,82.873.3c-5.557,1.16-9.819,4.98-13.034,11.676-2.373,4.943-2.816,7.005-2.821,13.135,0,4.48.1,5.48.777,7.648C69.839,39.3,73.966,43.73,78.941,44.715a10.108,10.108,0,0,0,4.936-.028c5.035-1.069,9.932-5.394,13.018-11.495a28.085,28.085,0,0,0,2.791-12.12c.2-5.5-.331-8.432-2.281-12.51C94.848,3.222,90.481.132,85.618.036ZM13.834,29.452A12.956,12.956,0,0,0,2.029,37.035,19.891,19.891,0,0,0,.016,46.588C0,56.712,6.086,66.136,14.642,69.241a11.035,11.035,0,0,0,5.188.676,9.9,9.9,0,0,0,5.189-1.173c5.235-2.577,8.234-8.3,8.234-15.7a25.706,25.706,0,0,0-4.828-15.037C24.415,32.341,18.931,29.47,13.834,29.452Zm98.412.159a12.239,12.239,0,0,0-5.2.754c-7.917,3.153-13.775,12-14.192,21.433A19.315,19.315,0,0,0,94.6,61.885a13.193,13.193,0,0,0,7.46,7.332c3.687,1.517,9.01.82,12.995-1.7,4.828-3.056,8.709-8.682,10.311-14.943a29.121,29.121,0,0,0,.173-11.625c-1.231-4.724-4.029-8.43-7.748-10.261-2.066-1.014-2.442-1.088-5.547-1.077ZM61.873,45.779c-7.308.114-13.053,3.735-17.3,10.9-2.484,4.19-7.617,10.53-13.444,16.609-5.9,6.151-7.8,8.612-9.659,12.5a20.324,20.324,0,0,0-2.373,8.559c-.7,8.551,6.336,17.853,14.74,19.5,2.913.571,7.25-.117,15.844-2.511,6.266-1.745,9.625-2.437,11.842-2.437s7.561.975,16.141,2.948c9.824,2.259,11.535,2.5,13.65,1.948,5.469-1.435,11.153-6.916,13.105-12.636,1.538-4.506,1.143-8.751-1.28-13.756-2.417-4.986-4.786-8.205-10.013-13.585-3.6-3.7-6.247-7.17-11.313-14.8-4.257-6.409-5.841-8.3-8.407-10.044A18.359,18.359,0,0,0,63.356,45.8q-.753-.035-1.484-.022ZM72.191,64.84a10.93,10.93,0,0,1,3.737.585A10.5,10.5,0,0,1,82.661,72.6a14.7,14.7,0,0,1,.162,5.168c-.863,4.668-3.7,8.474-10.222,13.737-1.2.968-2.543,2.042-2.985,2.387-1.157.9-3.926,3.329-4.548,3.982a14.012,14.012,0,0,0-1.9,2.439,2.244,2.244,0,0,1-.4.586c-.04,0-.139-.161-.221-.358a18.322,18.322,0,0,0-4.127-4.629c-.6-.518-2.275-1.9-3.724-3.06l-3.237-2.6c-.671-.539-2.524-2.3-3.726-3.539a18.937,18.937,0,0,1-4.5-7.12,11.361,11.361,0,0,1-.582-4.071,8.909,8.909,0,0,1,.259-2.692,10.306,10.306,0,0,1,1.363-3.214,10.6,10.6,0,0,1,6.4-4.488,7.749,7.749,0,0,1,2.928-.243,9.523,9.523,0,0,1,2.583.294,9.825,9.825,0,0,1,4.57,2.95A12.646,12.646,0,0,1,62.609,71.5l.2.622.2-.622a10.468,10.468,0,0,1,3.446-4.869,10.047,10.047,0,0,1,5.739-1.794Z" fill="#eaeaea"/>
    </g>
    <g id="layer1-2" data-name="layer1" transform="matrix(0.848, 0.53, -0.53, 0.848, 1533.859, 801.758)" opacity="0.699">
      <path id="path3472-2" data-name="path3472" d="M21,0c-4,.022-7.44,3.97-7.44,10.159a15.523,15.523,0,0,0,1.05,5.909c1.328,3.453,4.1,6.235,6.915,6.95a6.949,6.949,0,0,0,7.591-3.807c1.074-2.026,1.346-3.292,1.343-6.256A13.58,13.58,0,0,0,26.518,2.564,7.8,7.8,0,0,0,21,0ZM44.174.02a6.334,6.334,0,0,0-1.416.135c-2.866.6-5.067,2.569-6.725,6.024a12.312,12.312,0,0,0-1.453,6.777,10.739,10.739,0,0,0,.4,3.946c1.054,3.377,3.184,5.662,5.75,6.17a5.215,5.215,0,0,0,2.547-.015c2.6-.552,5.125-2.783,6.717-5.931a14.491,14.491,0,0,0,1.44-6.254,11.9,11.9,0,0,0-1.177-6.455C48.937,1.662,46.683.068,44.174.02ZM7.132,15.2a6.684,6.684,0,0,0-6.088,3.916A10.264,10.264,0,0,0,.009,24.04C0,29.264,3.14,34.127,7.555,35.729a5.7,5.7,0,0,0,2.676.345,5.1,5.1,0,0,0,2.676-.6c2.7-1.33,4.249-4.28,4.249-8.1a13.264,13.264,0,0,0-2.491-7.759A9.54,9.54,0,0,0,7.132,15.2Zm50.778.082a6.309,6.309,0,0,0-2.681.389c-4.085,1.627-7.107,6.191-7.323,11.059a9.969,9.969,0,0,0,.9,5.206,6.808,6.808,0,0,0,3.85,3.783,7.817,7.817,0,0,0,6.7-.879,13.084,13.084,0,0,0,5.32-7.711,15.026,15.026,0,0,0,.086-6,7.969,7.969,0,0,0-3.993-5.3,4.614,4.614,0,0,0-2.86-.554ZM31.922,23.621c-3.771.059-6.733,1.927-8.928,5.626a54.933,54.933,0,0,1-6.937,8.57c-3.043,3.174-4.024,4.443-4.984,6.452a10.486,10.486,0,0,0-1.224,4.416,10.1,10.1,0,0,0,7.605,10.061c1.5.294,3.741-.06,8.175-1.295a26.247,26.247,0,0,1,6.11-1.258,52.831,52.831,0,0,1,8.327,1.521c5.069,1.165,5.956,1.295,7.043,1.006a10.846,10.846,0,0,0,6.762-6.52,8.782,8.782,0,0,0-.66-7.1,24.156,24.156,0,0,0-5.165-7.01,47.975,47.975,0,0,1-5.837-7.635c-2.2-3.307-3.014-4.283-4.338-5.179a9.473,9.473,0,0,0-5.179-1.64Q32.3,23.615,31.922,23.621Zm5.324,9.835a5.64,5.64,0,0,1,1.928.3,5.416,5.416,0,0,1,3.475,3.7,7.584,7.584,0,0,1,.086,2.666c-.447,2.408-1.909,4.373-5.275,7.088-.619.5-1.312,1.054-1.54,1.232-.6.466-2.026,1.718-2.347,2.054a7.228,7.228,0,0,0-.979,1.258,1.157,1.157,0,0,1-.207.3c-.021,0-.072-.086-.114-.185a9.471,9.471,0,0,0-2.129-2.388c-.31-.269-1.174-.98-1.921-1.579l-1.67-1.34c-.345-.278-1.3-1.185-1.922-1.825a9.771,9.771,0,0,1-2.323-3.674,5.862,5.862,0,0,1-.3-2.1,4.6,4.6,0,0,1,.136-1.389,5.318,5.318,0,0,1,.7-1.659,5.469,5.469,0,0,1,3.3-2.318,4,4,0,0,1,1.511-.125,4.913,4.913,0,0,1,1.333.152,5.069,5.069,0,0,1,2.358,1.523,6.525,6.525,0,0,1,.961,1.738l.1.321.1-.321a5.4,5.4,0,0,1,1.778-2.513,5.184,5.184,0,0,1,2.955-.927Z" transform="translate(0 0)" fill="#eaeaea"/>
    </g>
    <g id="layer1-3" data-name="layer1" transform="translate(1494.117 884.744) rotate(54.975)" opacity="0.699">
      <path id="path3472-3" data-name="path3472" d="M25.515,0c-4.855.027-9.04,4.828-9.04,12.343a18.86,18.86,0,0,0,1.278,7.18c1.614,4.191,4.98,7.575,8.4,8.444,3.467.88,7.33-1.056,9.222-4.626,1.3-2.461,1.635-4,1.632-7.6A16.5,16.5,0,0,0,32.224,3.116,9.482,9.482,0,0,0,25.515,0ZM53.673.024a7.7,7.7,0,0,0-1.72.164C48.471.914,45.8,3.309,43.782,7.507c-1.487,3.1-1.765,4.392-1.769,8.234,0,2.809.061,3.435.485,4.795,1.281,4.1,3.868,6.879,6.986,7.5a6.336,6.336,0,0,0,3.094-.018c3.153-.672,6.228-3.378,8.159-7.207a17.608,17.608,0,0,0,1.75-7.6,14.462,14.462,0,0,0-1.43-7.843C59.46,2.021,56.721.083,53.673.024Zm-45,18.439a8.121,8.121,0,0,0-7.4,4.754A12.47,12.47,0,0,0,.01,29.205c-.009,6.347,3.8,12.257,9.169,14.2a6.917,6.917,0,0,0,3.252.424,6.193,6.193,0,0,0,3.253-.735c3.28-1.616,5.162-5.2,5.162-9.84a16.115,16.115,0,0,0-3.027-9.43C15.306,20.274,11.869,18.471,8.673,18.463Zm61.693.1a7.665,7.665,0,0,0-3.258.473c-4.963,1.977-8.631,7.522-8.9,13.436A12.113,12.113,0,0,0,59.3,38.8a8.271,8.271,0,0,0,4.677,4.6,9.49,9.49,0,0,0,8.146-1.067,15.9,15.9,0,0,0,6.463-9.368,18.256,18.256,0,0,0,.107-7.288,9.682,9.682,0,0,0-4.857-6.432A5.6,5.6,0,0,0,70.365,18.562ZM38.788,28.7c-4.582.072-8.183,2.342-10.847,6.835a66.74,66.74,0,0,1-8.429,10.412c-3.7,3.856-4.889,5.4-6.055,7.839A12.74,12.74,0,0,0,11.97,59.15c-.437,5.36,3.97,11.192,9.24,12.224,1.826.357,4.545-.073,9.932-1.574,3.928-1.094,6.034-1.528,7.423-1.528s4.74.612,10.117,1.848c6.159,1.416,7.231,1.569,8.556,1.221a13.177,13.177,0,0,0,8.215-7.921,10.67,10.67,0,0,0-.8-8.624,29.3,29.3,0,0,0-6.275-8.517A58.3,58.3,0,0,1,51.285,37c-2.669-4.018-3.661-5.2-5.27-6.3a11.509,11.509,0,0,0-6.3-1.995Q39.246,28.693,38.788,28.7Zm6.468,11.949a6.852,6.852,0,0,1,2.343.367,6.581,6.581,0,0,1,4.222,4.5,9.214,9.214,0,0,1,.1,3.239c-.544,2.926-2.319,5.313-6.408,8.612-.752.6-1.594,1.28-1.871,1.5-.725.567-2.462,2.087-2.848,2.5a8.783,8.783,0,0,0-1.189,1.529,1.405,1.405,0,0,1-.251.367c-.025,0-.086-.1-.138-.224a11.508,11.508,0,0,0-2.589-2.9c-.376-.326-1.427-1.19-2.331-1.918l-2.029-1.628c-.42-.338-1.582-1.441-2.336-2.217A11.871,11.871,0,0,1,27.11,49.9a7.122,7.122,0,0,1-.365-2.551,5.585,5.585,0,0,1,.165-1.687,6.461,6.461,0,0,1,.855-2.015,6.646,6.646,0,0,1,4.009-2.816,4.858,4.858,0,0,1,1.835-.152,5.969,5.969,0,0,1,1.619.184,6.159,6.159,0,0,1,2.865,1.85,7.927,7.927,0,0,1,1.167,2.112l.126.39.123-.39a6.56,6.56,0,0,1,2.158-3.052,6.3,6.3,0,0,1,3.589-1.126Z" transform="translate(0)" fill="#eaeaea"/>
    </g>
    <g id="layer1-4" data-name="layer1" transform="matrix(0.515, 0.857, -0.857, 0.515, 1643.593, 795.468)" opacity="0.699">
      <path id="path3472-4" data-name="path3472" d="M15.993,0c-3.043.017-5.667,3.026-5.667,7.737a11.825,11.825,0,0,0,.8,4.5c1.012,2.627,3.122,4.747,5.265,5.293a5.292,5.292,0,0,0,5.783-2.9A8.446,8.446,0,0,0,23.2,9.867a10.342,10.342,0,0,0-3-7.913A5.944,5.944,0,0,0,15.993,0Zm17.65.016a4.824,4.824,0,0,0-1.078.1c-2.183.455-3.858,1.956-5.121,4.588a9.4,9.4,0,0,0-1.108,5.162,8.178,8.178,0,0,0,.3,3c.8,2.571,2.425,4.316,4.38,4.7a3.971,3.971,0,0,0,1.939-.012,8.128,8.128,0,0,0,5.115-4.517,11.035,11.035,0,0,0,1.1-4.763,9.063,9.063,0,0,0-.9-4.92A5.34,5.34,0,0,0,33.642.016ZM5.436,11.572A5.093,5.093,0,0,0,.8,14.552a7.816,7.816,0,0,0-.791,3.754c-.006,3.978,2.385,7.682,5.747,8.9a4.336,4.336,0,0,0,2.039.266,3.884,3.884,0,0,0,2.039-.461c2.057-1.012,3.236-3.26,3.236-6.17a10.1,10.1,0,0,0-1.9-5.908A7.264,7.264,0,0,0,5.436,11.572Zm38.669.062a4.8,4.8,0,0,0-2.041.3,9.619,9.619,0,0,0-5.577,8.422,7.6,7.6,0,0,0,.684,3.964A5.184,5.184,0,0,0,40.106,27.2a5.956,5.956,0,0,0,5.106-.669,9.964,9.964,0,0,0,4.052-5.869,11.443,11.443,0,0,0,.065-4.569,6.069,6.069,0,0,0-3.044-4.032,3.513,3.513,0,0,0-2.179-.424Zm-19.8,6.355c-2.872.045-5.129,1.467-6.8,4.285A41.834,41.834,0,0,1,12.227,28.8c-2.318,2.417-3.064,3.384-3.8,4.914A7.986,7.986,0,0,0,7.5,37.081a7.692,7.692,0,0,0,5.792,7.662c1.145.224,2.848-.046,6.226-.987a19.968,19.968,0,0,1,4.653-.957,40.235,40.235,0,0,1,6.342,1.158c3.86.887,4.532.983,5.364.766a8.259,8.259,0,0,0,5.15-4.965,6.688,6.688,0,0,0-.5-5.405,18.4,18.4,0,0,0-3.933-5.339A36.535,36.535,0,0,1,32.14,23.2c-1.673-2.519-2.3-3.262-3.3-3.946A7.214,7.214,0,0,0,24.89,18Q24.6,17.984,24.309,17.99Zm4.057,7.49a4.3,4.3,0,0,1,1.467.23A4.125,4.125,0,0,1,32.48,28.53a5.776,5.776,0,0,1,.064,2.031c-.341,1.834-1.454,3.33-4.017,5.4-.471.381-1,.8-1.173.938-.455.356-1.543,1.309-1.787,1.565a5.5,5.5,0,0,0-.745.958.881.881,0,0,1-.158.23c-.016,0-.054-.063-.086-.141a7.213,7.213,0,0,0-1.622-1.819c-.236-.2-.894-.746-1.467-1.2l-1.272-1.02c-.263-.211-.992-.9-1.467-1.39a7.441,7.441,0,0,1-1.769-2.8,4.464,4.464,0,0,1-.229-1.6,3.5,3.5,0,0,1,.1-1.058,4.05,4.05,0,0,1,.535-1.263A4.165,4.165,0,0,1,19.9,25.6a3.045,3.045,0,0,1,1.151-.1,3.741,3.741,0,0,1,1.015.116,3.861,3.861,0,0,1,1.8,1.159A4.969,4.969,0,0,1,24.6,28.1l.079.244.077-.244a4.114,4.114,0,0,1,1.354-1.914,3.948,3.948,0,0,1,2.26-.709Z" transform="translate(0)" fill="#eaeaea"/>
    </g>
    <g id="layer1-5" data-name="layer1" transform="matrix(0.515, 0.857, -0.857, 0.515, 1643.593, 795.468)" opacity="0.699">
      <path id="path3472-5" data-name="path3472" d="M15.993,0c-3.043.017-5.667,3.026-5.667,7.737a11.825,11.825,0,0,0,.8,4.5c1.012,2.627,3.122,4.747,5.265,5.293a5.292,5.292,0,0,0,5.783-2.9A8.446,8.446,0,0,0,23.2,9.867a10.342,10.342,0,0,0-3-7.913A5.944,5.944,0,0,0,15.993,0Zm17.65.016a4.824,4.824,0,0,0-1.078.1c-2.183.455-3.858,1.956-5.121,4.588a9.4,9.4,0,0,0-1.108,5.162,8.178,8.178,0,0,0,.3,3c.8,2.571,2.425,4.316,4.38,4.7a3.971,3.971,0,0,0,1.939-.012,8.128,8.128,0,0,0,5.115-4.517,11.035,11.035,0,0,0,1.1-4.763,9.063,9.063,0,0,0-.9-4.92A5.34,5.34,0,0,0,33.642.016ZM5.436,11.572A5.093,5.093,0,0,0,.8,14.552a7.816,7.816,0,0,0-.791,3.754c-.006,3.978,2.385,7.682,5.747,8.9a4.336,4.336,0,0,0,2.039.266,3.884,3.884,0,0,0,2.039-.461c2.057-1.012,3.236-3.26,3.236-6.17a10.1,10.1,0,0,0-1.9-5.908A7.264,7.264,0,0,0,5.436,11.572Zm38.669.062a4.8,4.8,0,0,0-2.041.3,9.619,9.619,0,0,0-5.577,8.422,7.6,7.6,0,0,0,.684,3.964A5.184,5.184,0,0,0,40.106,27.2a5.956,5.956,0,0,0,5.106-.669,9.964,9.964,0,0,0,4.052-5.869,11.443,11.443,0,0,0,.065-4.569,6.069,6.069,0,0,0-3.044-4.032,3.513,3.513,0,0,0-2.179-.424Zm-19.8,6.355c-2.872.045-5.129,1.467-6.8,4.285A41.834,41.834,0,0,1,12.227,28.8c-2.318,2.417-3.064,3.384-3.8,4.914A7.986,7.986,0,0,0,7.5,37.081a7.692,7.692,0,0,0,5.792,7.662c1.145.224,2.848-.046,6.226-.987a19.968,19.968,0,0,1,4.653-.957,40.235,40.235,0,0,1,6.342,1.158c3.86.887,4.532.983,5.364.766a8.259,8.259,0,0,0,5.15-4.965,6.688,6.688,0,0,0-.5-5.405,18.4,18.4,0,0,0-3.933-5.339A36.535,36.535,0,0,1,32.14,23.2c-1.673-2.519-2.3-3.262-3.3-3.946A7.214,7.214,0,0,0,24.89,18Q24.6,17.984,24.309,17.99Zm4.057,7.49a4.3,4.3,0,0,1,1.467.23A4.125,4.125,0,0,1,32.48,28.53a5.776,5.776,0,0,1,.064,2.031c-.341,1.834-1.454,3.33-4.017,5.4-.471.381-1,.8-1.173.938-.455.356-1.543,1.309-1.787,1.565a5.5,5.5,0,0,0-.745.958.881.881,0,0,1-.158.23c-.016,0-.054-.063-.086-.141a7.213,7.213,0,0,0-1.622-1.819c-.236-.2-.894-.746-1.467-1.2l-1.272-1.02c-.263-.211-.992-.9-1.467-1.39a7.441,7.441,0,0,1-1.769-2.8,4.464,4.464,0,0,1-.229-1.6,3.5,3.5,0,0,1,.1-1.058,4.05,4.05,0,0,1,.535-1.263A4.165,4.165,0,0,1,19.9,25.6a3.045,3.045,0,0,1,1.151-.1,3.741,3.741,0,0,1,1.015.116,3.861,3.861,0,0,1,1.8,1.159A4.969,4.969,0,0,1,24.6,28.1l.079.244.077-.244a4.114,4.114,0,0,1,1.354-1.914,3.948,3.948,0,0,1,2.26-.709Z" transform="translate(0)" fill="#eaeaea"/>
    </g>
  </g>
</svg>
